<svg width="24" height="24" viewBox="0 0 24 24" fill="none" xmlns="http://www.w3.org/2000/svg">
<path fill-rule="evenodd" clip-rule="evenodd" d="M1 7.45455C1 8.4587 1.82081 9.27273 2.83333 9.27273V20.1818H1.91667C1.41041 20.1818 1 20.5888 1 21.0909C1 21.593 1.41041 22 1.91667 22H22.0833C22.5896 22 23 21.593 23 21.0909C23 20.5888 22.5896 20.1818 22.0833 20.1818H21.1667V9.27273C22.1792 9.27273 23 8.4587 23 7.45455V3.81818C23 2.81403 22.1792 2 21.1667 2H2.83333C1.82081 2 1 2.81403 1 3.81818V7.45455ZM19.3333 9.27273H10.1667V20.1818H19.3333V9.27273ZM8.33333 9.27273H4.66667V14.7273H8.33333V9.27273ZM2.83333 4.72727H21.1667V6.54545H2.83333V4.72727Z" fill="#fff"/>
</svg>
