<svg width="32" height="32" viewBox="0 0 32 32" fill="none" xmlns="http://www.w3.org/2000/svg">
<rect width="32" height="32" rx="4" fill="white"/>
<path d="M15.5 7.18652C10.592 7.18652 7.5 8.69852 7.5 10.1875V12.1875C7.5 13.1055 13.5 18.1875 13.5 18.1875V24.1875C13.499 24.8715 14.5 25.1875 15.5 25.1875C16.5 25.1875 17.501 24.8715 17.5 24.1875V18.1875C17.5 18.1875 23.5 13.1055 23.5 12.1875V10.1875C23.5 8.69852 20.408 7.18652 15.5 7.18652ZM15.5 12.3095C11.909 12.3085 9.362 10.9765 9.362 10.4785C9.36 9.98352 11.91 8.64752 15.5 8.64952C19.09 8.64752 21.64 9.98352 21.638 10.4775C21.638 10.9765 19.091 12.3085 15.5 12.3095Z" fill="#1B3DA1"/>
</svg>
