<svg width="32" height="32" viewBox="0 0 32 32" fill="none" xmlns="http://www.w3.org/2000/svg">
<rect width="32" height="32" rx="4" fill="#F7FCFF"/>
<path d="M15.1565 9.6875H9.59034C9.16856 9.6875 8.76405 9.85505 8.4658 10.1533C8.16755 10.4515 8 10.8561 8 11.2778V22.4102C8 22.832 8.16755 23.2365 8.4658 23.5348C8.76405 23.833 9.16856 24.0006 9.59034 24.0006H20.7227C21.1445 24.0006 21.549 23.833 21.8473 23.5348C22.1455 23.2365 22.3131 22.832 22.3131 22.4102V16.844" stroke="#3C8FFF" stroke-width="1.59034" stroke-linecap="round" stroke-linejoin="round"/>
<path d="M21.1188 8.49406C21.4352 8.17772 21.8642 8 22.3116 8C22.7589 8 23.188 8.17772 23.5043 8.49406C23.8207 8.81039 23.9984 9.23944 23.9984 9.68681C23.9984 10.1342 23.8207 10.5632 23.5043 10.8796L15.9502 18.4337L12.7695 19.2289L13.5647 16.0482L21.1188 8.49406Z" stroke="#3C8FFF" stroke-width="1.59034" stroke-linecap="round" stroke-linejoin="round"/>
</svg>
